<svg xmlns="http://www.w3.org/2000/svg" width="165" height="40" fill="none" xmlns:v="https://vecta.io/nano"><path fill-rule="evenodd" d="M14.944 0c-3.559 0-6.445 2.886-6.445 6.445v1.253c-2.141-.559-4.515 0-6.193 1.678-2.517 2.517-2.517 6.598 0 9.115l.886.886C1.283 20.496 0 22.569 0 24.942c0 3.559 2.886 6.445 6.445 6.445h1.253c-.559 2.141 0 4.515 1.678 6.193 2.517 2.517 6.598 2.517 9.115 0l2.644-2.644c2.332-2.332 3.421-5.437 3.268-8.49l4.063 4.063c2.517 2.517 6.598 2.517 9.115 0s2.517-6.598 0-9.114l-.886-.886c1.909-1.119 3.192-3.192 3.192-5.565 0-3.559-2.886-6.445-6.445-6.445h-1.254c.56-2.141 0-4.515-1.678-6.193-2.517-2.517-6.597-2.517-9.114 0L18.752 4.95c-2.332 2.332-3.421 5.436-3.268 8.49l-4.063-4.063-.03-.03V6.445c0-1.963 1.591-3.554 3.554-3.554 1.594 0 2.943 1.05 3.393 2.495l.415-.437 1.757-1.757C19.39 1.283 17.317 0 14.944 0zM30.54 11.39l-.03.03-4.063 4.063c2.866-.144 5.778.807 8.053 2.853 1.446-.45 2.496-1.799 2.496-3.393 0-1.963-1.591-3.554-3.554-3.554H30.54zM9.346 28.496l.03-.03 4.063-4.063c-2.866.144-5.778-.807-8.053-2.853-1.446.45-2.496 1.799-2.496 3.393 0 1.963 1.591 3.554 3.554 3.554h2.901zm15.596 11.39c-2.373 0-4.447-1.283-5.565-3.193l1.757-1.757.415-.437c.45 1.446 1.799 2.496 3.393 2.496 1.963 0 3.554-1.591 3.554-3.554V30.54c.833.822 1.834 1.371 2.891 1.647v1.254c0 3.559-2.886 6.445-6.445 6.445zm3.523-35.535c-1.388-1.388-3.638-1.388-5.026 0l-2.644 2.644c-2.673 2.673-3.145 6.715-1.416 9.871.293.534 1.011.585 1.442.154l7.644-7.644c1.388-1.388 1.388-3.638 0-5.026zm7.07 24.115c1.388-1.388 1.388-3.638 0-5.026l-2.643-2.644c-2.673-2.673-6.715-3.145-9.871-1.416-.534.293-.585 1.011-.154 1.442l7.644 7.644c1.388 1.388 3.638 1.388 5.025 0zm-19.089 7.07c-1.388 1.388-3.638 1.388-5.026 0s-1.388-3.638 0-5.026l7.644-7.644c.431-.431 1.149-.38 1.442.154 1.729 3.157 1.257 7.198-1.416 9.871l-2.644 2.644zM4.351 11.421c-1.388 1.388-1.388 3.638 0 5.026l2.644 2.644c2.673 2.673 6.715 3.145 9.871 1.416.534-.293.585-1.011.154-1.442l-7.644-7.644c-1.388-1.388-3.638-1.388-5.026 0z" fill="url(#A)"/><path d="M55.321 19.966h4.629a4.47 4.47 0 0 0 3.281-1.362c.899-.898 1.348-1.987 1.348-3.267s-.449-2.373-1.348-3.281a4.47 4.47 0 0 0-3.281-1.362 4.47 4.47 0 0 0-3.281 1.362c-.898.908-1.348 2.002-1.348 3.281v4.629zm0 2.71v5.991a1.25 1.25 0 0 1-.395.938 1.28 1.28 0 0 1-.937.395h-.044a1.28 1.28 0 0 1-.937-.395 1.25 1.25 0 0 1-.395-.937v-13.33c0-2.031.718-3.765 2.153-5.2a7.09 7.09 0 0 1 5.186-2.139c2.031 0 3.76.713 5.185 2.139 1.436 1.436 2.153 3.169 2.153 5.2 0 2.021-.718 3.75-2.153 5.186-1.426 1.435-3.154 2.153-5.185 2.153h-4.629zm26.652-4.38c-1.025-1.035-2.271-1.553-3.735-1.553s-2.715.517-3.75 1.553a5.13 5.13 0 0 0-1.538 3.75c0 1.455.513 2.7 1.538 3.735 1.035 1.035 2.285 1.553 3.75 1.553s2.71-.518 3.735-1.553a5.09 5.09 0 0 0 1.553-3.735c0-1.465-.518-2.715-1.553-3.75zm-9.39-1.948c1.563-1.562 3.447-2.344 5.654-2.344s4.092.781 5.654 2.344 2.344 3.447 2.344 5.654-.781 4.092-2.344 5.654S80.445 30 78.238 30s-4.092-.781-5.654-2.344-2.344-3.447-2.344-5.654.781-4.092 2.344-5.654zm19.005-8.35c.361 0 .674.127.938.381.264.264.395.581.395.952v19.336a1.25 1.25 0 0 1-.395.938 1.28 1.28 0 0 1-.937.395h-.044a1.28 1.28 0 0 1-.937-.395 1.25 1.25 0 0 1-.395-.937V9.331c0-.371.132-.688.395-.952.264-.254.576-.381.938-.381h.044zm8.473 7.354v7.69c0 1.084.381 2.012 1.143 2.783a3.81 3.81 0 0 0 2.798 1.157 3.74 3.74 0 0 0 2.768-1.157 3.76 3.76 0 0 0 1.158-2.783v-7.69c0-.371.131-.688.395-.952s.581-.396.952-.396h.029a1.25 1.25 0 0 1 .938.396c.264.264.395.581.395.952V29.37c0 1.807-.683 3.374-2.05 4.702-1.328 1.299-2.857 1.948-4.585 1.948-1.387 0-2.647-.342-3.78-1.025-1.093-.654-1.923-1.538-2.49-2.651a1.24 1.24 0 0 1-.044-1.099c.146-.381.41-.635.791-.762l.059-.029c.313-.107.62-.102.923.015a1.35 1.35 0 0 1 .688.63c.352.664.874 1.196 1.568 1.597.703.41 1.464.615 2.285.615 1.045 0 1.958-.386 2.739-1.157.791-.781 1.187-1.709 1.187-2.783v-.981a6.44 6.44 0 0 1-3.926 1.289c-1.836 0-3.404-.649-4.702-1.948-1.299-1.289-1.948-2.852-1.948-4.687v-7.69c0-.371.132-.688.396-.952a1.28 1.28 0 0 1 .938-.396h.044a1.28 1.28 0 0 1 .938.396c.264.264.395.581.395.952zm17.233 15.557c1.055 1.602 2.637 2.402 4.746 2.402 1.338 0 2.544-.517 3.619-1.553 1.113-1.064 1.669-2.31 1.669-3.735v-.029c-1.513 1.338-3.276 2.007-5.288 2.007-2.207 0-4.091-.781-5.654-2.344s-2.344-3.447-2.344-5.654.782-4.092 2.344-5.654 3.447-2.344 5.654-2.344c2.198 0 4.078.776 5.64 2.329a7.7 7.7 0 0 1 2.358 5.64v6.05c0 2.158-.839 4.043-2.519 5.654-1.621 1.563-3.447 2.344-5.479 2.344-3.134 0-5.478-1.211-7.031-3.633a1.28 1.28 0 0 1-.146-1.157 1.27 1.27 0 0 1 .82-.835l.044-.015c.654-.225 1.177-.049 1.567.527zm10.034-8.994c-.019-1.445-.546-2.671-1.582-3.677a5.07 5.07 0 0 0-3.706-1.523 5.11 5.11 0 0 0-3.75 1.553c-1.025 1.035-1.538 2.28-1.538 3.735 0 1.465.513 2.715 1.538 3.75 1.036 1.025 2.286 1.538 3.75 1.538s2.71-.513 3.736-1.538c1.035-1.035 1.552-2.285 1.552-3.75v-.088zm17.834-3.618c-1.025-1.035-2.27-1.553-3.735-1.553s-2.715.517-3.75 1.553a5.13 5.13 0 0 0-1.538 3.75 5.11 5.11 0 0 0 1.538 3.735c1.035 1.035 2.285 1.553 3.75 1.553s2.71-.518 3.735-1.553a5.09 5.09 0 0 0 1.553-3.735c0-1.465-.518-2.715-1.553-3.75zm-9.39-1.948c1.563-1.562 3.448-2.344 5.655-2.344a7.7 7.7 0 0 1 5.654 2.344 7.7 7.7 0 0 1 2.344 5.654 7.7 7.7 0 0 1-2.344 5.654A7.7 7.7 0 0 1 141.428 30c-2.207 0-4.092-.781-5.655-2.344s-2.343-3.447-2.343-5.654.781-4.092 2.343-5.654zm18.42-8.35c.361 0 .674.127.937.381.264.264.396.581.396.952v4.673h2.637a1.28 1.28 0 0 1 .937.396c.264.264.396.581.396.952v.029a1.25 1.25 0 0 1-.396.938 1.28 1.28 0 0 1-.937.395h-2.637v9.126c0 .4.142.742.425 1.025s.63.425 1.04.425h1.172a1.28 1.28 0 0 1 .937.396c.264.264.396.581.396.952v.029a1.25 1.25 0 0 1-.396.938 1.28 1.28 0 0 1-.937.395h-1.172c-1.153 0-2.139-.405-2.959-1.216-.811-.82-1.216-1.802-1.216-2.944V9.331c0-.371.132-.688.396-.952.263-.254.576-.381.937-.381h.044z" fill="#252f3f"/><defs><radialGradient id="A" cx="0" cy="0" r="1" gradientUnits="userSpaceOnUse" gradientTransform="translate(19.943 19.943) rotate(90) scale(19.943 19.943)"><stop offset=".495" stop-color="#6366f1"/><stop offset="1" stop-color="#8b8df5"/></radialGradient></defs></svg>